<svg width="20" height="19" viewBox="0 0 20 19" fill="none" xmlns="http://www.w3.org/2000/svg">
<path fill-rule="evenodd" clip-rule="evenodd" d="M3.6989 5L8.0975 0.784674C9.1612 -0.234702 10.8393 -0.234703 11.903 0.784674L16.3016 5H18.8472C19.4558 5 19.9233 5.53899 19.8372 6.14142L18.3682 16.4243C18.1571 17.9022 16.8913 19 15.3984 19H4.60214C3.10919 19 1.84343 17.9022 1.63229 16.4243L0.163315 6.14142C0.0772527 5.53899 0.544715 5 1.15326 5H3.6989ZM9.13536 1.86766C9.61886 1.4043 10.3816 1.4043 10.8651 1.86766L14.1337 5H5.86682L9.13536 1.86766ZM1.72977 6.5L3.11722 16.2121C3.22278 16.9511 3.85567 17.5 4.60214 17.5H15.3984C16.1448 17.5 16.7777 16.9511 16.8833 16.2121L18.2707 6.5H1.72977Z" fill="black"/>
</svg>
